<?xml version="1.0" encoding="utf-8"?>
<!-- Generator: Adobe Illustrator 22.1.0, SVG Export Plug-In . SVG Version: 6.00 Build 0)  -->
<svg version="1.1" id="Camada_1" xmlns="http://www.w3.org/2000/svg" xmlns:xlink="http://www.w3.org/1999/xlink" x="0px" y="0px"
	 viewBox="0 0 800 600" style="enable-background:new 0 0 800 600;" xml:space="preserve">
<style type="text/css">
	.st0{fill:none;}
	.st1{fill:#9B0E0E;}
</style>
<g>
	<path d="M273.5,265.9l-30-0.1l-8.9,18.1h-7l26.9-69h6.1l26.9,69h-7.1L273.5,265.9z M268.1,241.9l-8.3-21.9l-12,37L268.1,241.9z"/>
	<path d="M293.5,220.9l-26.5-0.1l-2.4-5.9h63.9l0.1,6h-27.1v63h-8V220.9z"/>
	<path d="M328.5,220.9h8v63h-8V220.9z"/>
	<path d="M362.5,220.9h-26v-6h61v6h-27v63h-8V220.9z"/>
	<path d="M442.7,276.9c4.6-5.1,6.9-12.6,6.9-22.4v-39.6h-7v39.3c0,8-1.7,14-5,18c-3.3,3.9-8.2,5.9-14.5,5.9c-6.4,0-11.2-2-14.5-5.9
		c-3.3-3.9-5-9.9-5-18v-15.3v-8.4v-4v-3.8l-6-6.7v38.5c0,9.8,2.3,17.3,6.8,22.4c4.6,5.1,10.9,7.7,19.1,7.7
		C431.7,284.6,438.1,282.1,442.7,276.9z"/>
	<path d="M453.5,214.9h19.2c5,0,9.4,1.5,13.2,4.4c3.8,2.9,6.8,7,8.9,12.2c2.1,5.2,3.2,11.2,3.2,17.9c0,6.7-1.1,12.7-3.2,17.9
		c-2.1,5.2-5.1,9.3-8.9,12.2c-3.8,2.9-8.2,4.4-13.2,4.4h-19.2V214.9z M475.8,265.9c2.8,0,5.2-0.9,7.2-2.7c2.1-1.8,3.7-4.3,4.8-7.4
		c1.1-3.2,1.7-6.8,1.7-10.9c0-4.1-0.6-7.7-1.7-10.9c-1.1-3.2-2.7-5.6-4.8-7.4c-2.1-1.8-4.5-2.7-7.2-2.7h-9.3v42H475.8z M336.5,207.7
		l-4,4l-4-4l4-4L336.5,207.7z"/>
	<path d="M526.5,251.9L526.5,251.9h-18v26h32.9l-6,6l-34.9,0v-69l33.3,0l5.7,6h-31v25l18.2,0l3,3"/>
	<path d="M555.5,763.6c-0.4,2571.8-0.3,5140.9,0.1,7713.3V763.1C555.5,763.3,555.5,763.4,555.5,763.6z"/>
	<path d="M555.5-29.7v-7876.3C555.1-5280.1,555.1-2655.9,555.5-29.7C555.5-29.7,555.5-29.7,555.5-29.7z"/>
	<line class="st0" x1="-7759.5" y1="220.9" x2="8623.5" y2="220.9"/>
	<polyline points="328.5,220.9 336.2,220.9 332.4,217.2 	"/>
</g>
<g>
	<path class="st1" d="M335.3,295.4c4.4,2.2,7.7,5.4,10.1,9.5c2.4,4.1,3.5,9,3.5,14.6c0,5.6-1.2,10.4-3.5,14.6
		c-2.4,4.2-5.7,7.3-10.1,9.5c-4.4,2.2-9.5,3.3-15.4,3.3h-14v20h-15v-75h29C325.8,292,331,293.2,335.3,295.4z M331.4,324.7
		c2.7-2.2,4-5.4,4-9.6c0-4.2-1.3-7.4-4-9.7c-2.7-2.2-6.5-3.4-11.6-3.4h-13.8v26h13.8C324.8,328,328.7,326.9,331.4,324.7z"/>
	<path class="st1" d="M372,362.5c-5.1-3.3-9.1-7.8-12-13.5c-2.9-5.7-4.3-12.2-4.3-19.4c0-7.2,1.4-13.6,4.3-19.4
		c2.9-5.7,6.9-10.3,12-13.5c5.1-3.3,10.8-4.9,17.1-4.9c6.3,0,12,1.6,17.1,4.9c5.1,3.3,9,7.8,12,13.5c2.9,5.7,4.4,12.2,4.4,19.4
		c0,7.2-1.5,13.6-4.4,19.4c-2.9,5.7-6.9,10.3-12,13.5c-5.1,3.3-10.8,4.9-17.1,4.9C382.9,367.4,377.1,365.7,372,362.5z M404.5,345.9
		c3.2-2,5.6-4.7,7.4-8.3c1.8-3.5,2.7-7.6,2.7-12.1c0-4.5-0.9-8.5-2.7-12.1c-1.8-3.5-4.3-6.3-7.4-8.3c-3.2-2-6.7-3-10.6-3
		c-3.9,0-7.5,1-10.6,3c-3.2,2-5.6,4.7-7.4,8.3c-1.8,3.5-2.7,7.6-2.7,12.1c0,4.5,0.9,8.5,2.7,12.1c1.8,3.5,4.3,6.3,7.4,8.3
		c3.2,2,6.7,3,10.6,3C397.8,348.9,401.3,347.9,404.5,345.9z"/>
	<path class="st1" d="M476.9,295.4c4.3,2.2,7.7,5.4,10,9.5c2.3,4.1,3.5,9,3.5,14.6c0,5.6-1.2,10.4-3.5,14.6c-2.3,4.2-5.7,7.3-10,9.5
		c-4.3,2.2-9.4,3.3-15.3,3.3h-13.7v20h-15v-75h28.7C467.5,292,472.6,293.2,476.9,295.4z M473.5,324.7c2.7-2.2,4-5.4,4-9.6
		c0-4.2-1.3-7.4-4-9.7c-2.7-2.2-6.6-3.4-11.7-3.4h-13.9v26h13.9C466.9,328,470.9,326.9,473.5,324.7z"/>
</g>
<polyline class="st0" points="527.1,244 527.2,250.2 527.2,250.3 "/>
<polyline points="328.6,283.9 336.5,283.9 332.7,287.6 "/>
<g>
	<polyline class="st1" points="303,329 303,324.2 308.3,329.5 	"/>
</g>
<path class="st1" d="M444.6,324.1l4.8,4.9h-5.1C444.3,329,444.6,324.1,444.6,324.1z"/>
</svg>
